<svg width="120" height="40" viewBox="0 0 120 40" fill="none" xmlns="http://www.w3.org/2000/svg">
  <!-- Flame/Shield Icon -->
  <g transform="translate(0, 5)">
    <!-- Shield Background -->
    <path d="M15 2L15 2C15 1.44772 15.4477 1 16 1H24C24.5523 1 25 1.44772 25 2L25 15C25 20.5228 20.5228 25 15 25V25C9.47715 25 5 20.5228 5 15V2C5 1.44772 5.44772 1 6 1H14C14.5523 1 15 1.44772 15 2Z" fill="#DC2626" stroke="#B91C1C" stroke-width="1"/>
    
    <!-- Flame -->
    <path d="M15 6C17 8 18 10 18 12C18 14.2091 16.2091 16 14 16C11.7909 16 10 14.2091 10 12C10 10 11 8 13 6C13.6667 5.33333 14.3333 5.33333 15 6Z" fill="#FEF3C7"/>
    <path d="M15 8C16 9 16.5 10 16.5 11C16.5 12.3807 15.3807 13.5 14 13.5C12.6193 13.5 11.5 12.3807 11.5 11C11.5 10 12 9 13 8C13.3333 7.66667 14.6667 7.66667 15 8Z" fill="#FBBF24"/>
    
    <!-- Spark/Star -->
    <circle cx="20" cy="8" r="1.5" fill="#FCD34D"/>
    <path d="M20 6L20.5 7.5L22 8L20.5 8.5L20 10L19.5 8.5L18 8L19.5 7.5L20 6Z" fill="#FCD34D"/>
  </g>
  
  <!-- Text -->
  <g transform="translate(35, 8)">
    <text x="0" y="12" font-family="Arial, sans-serif" font-size="16" font-weight="bold" fill="#DC2626">Spark</text>
    <text x="0" y="28" font-family="Arial, sans-serif" font-size="16" font-weight="bold" fill="#374151">Safe</text>
  </g>
</svg>
